<svg width="48" height="48" viewBox="0 0 48 48" fill="none" xmlns="http://www.w3.org/2000/svg">
    <path d="M39.6376 24.6822C39.6376 29.0284 37.911 33.1967 34.8378 36.27C31.7645 39.3432 27.5963 41.0697 23.25 41.0697C21.098 41.0697 18.967 40.6458 16.9788 39.8222C14.9906 38.9987 13.1841 37.7917 11.6623 36.27C10.1406 34.7483 8.93352 32.9416 8.10997 30.9533C7.28642 28.9651 6.86255 26.8342 6.86255 24.6822C6.86255 22.5301 7.28642 20.3992 8.10997 18.411C8.93352 16.4228 10.1406 14.6162 11.6623 13.0945C13.1841 11.5728 14.9906 10.3656 16.9788 9.54208C18.967 8.71853 21.098 8.29477 23.25 8.29477C27.5963 8.29477 31.7645 10.0213 34.8378 13.0945C37.911 16.1678 39.6376 20.3359 39.6376 24.6822Z"
          fill="#FE0505" stroke="black"/>
    <path fill-rule="evenodd" clip-rule="evenodd"
          d="M39.3674 25.7522C37.8313 26.8673 36.3922 27.6235 34.4446 28.3873C27.3375 31.1462 18.5973 31.1123 11.5374 28.2974C9.84341 27.6158 8.35677 26.8118 6.97571 25.859C7.55546 34.4883 14.6533 41.1684 23.3021 41.1693C33.0393 40.7852 38.7817 33.1268 39.3674 25.7515V25.7522Z"
          fill="white" stroke="black"/>
    <path fill-rule="evenodd" clip-rule="evenodd"
          d="M39.2941 23.9651L38.5324 24.5747C37.122 25.598 35.7868 26.2486 33.9005 26.9887C27.1861 29.5951 18.7651 29.5624 12.0978 26.9063H12.0918C10.6925 26.3428 9.39869 25.6761 8.23927 24.9257C8.20972 24.9062 7.99117 24.7278 7.70899 24.5331L6.44603 26.6798C6.50498 26.7203 6.28819 27.2367 6.61036 27.4452C7.94527 28.3091 9.41068 29.0614 10.9785 29.6923H10.9815C18.4331 32.6624 27.4897 32.6965 34.9874 29.7853H34.9904H34.9934C36.9986 28.9983 38.6395 28.2064 40.2991 27.0017L40.2426 26.7324L40.0501 25.4576L39.2943 23.9664L39.2941 23.9651Z"
          fill="black"/>
    <path d="M26.9638 29.5359C26.9638 30.4907 26.5845 31.4063 25.9094 32.0815C25.2342 32.7566 24.3186 33.136 23.3638 33.136C22.891 33.136 22.4229 33.0428 21.9861 32.8618C21.5494 32.6809 21.1525 32.4157 20.8182 32.0815C20.4839 31.7472 20.2187 31.3504 20.0378 30.9136C19.8569 30.4768 19.7638 30.0087 19.7638 29.5359C19.7638 29.0632 19.8569 28.595 20.0378 28.1582C20.2187 27.7215 20.4839 27.3247 20.8182 26.9904C21.1525 26.6561 21.5494 26.3909 21.9861 26.21C22.4229 26.0291 22.891 25.9359 23.3638 25.9359C24.3186 25.9359 25.2342 26.3153 25.9094 26.9904C26.5845 27.6655 26.9638 28.5811 26.9638 29.5359Z"
          fill="white" stroke="black"/>
</svg>
